<?xml version="1.0" encoding="utf-8"?>
<!-- Generator: Adobe Illustrator 24.0.2, SVG Export Plug-In . SVG Version: 6.00 Build 0)  -->
<svg version="1.0" id="Layer_1" xmlns="http://www.w3.org/2000/svg" xmlns:xlink="http://www.w3.org/1999/xlink" x="0px" y="0px"
	 viewBox="0 0 300 280" enable-background="new 0 0 300 280" xml:space="preserve">
<g id="XMLID_1_">
	<path id="XMLID_5_" fill="#0E4D92" d="M80.39,155.4c-6.8,0-11.19,4.81-11.19,12.24c0,7.41,4.39,12.2,11.19,12.2
		c6.82,0,11.23-4.79,11.23-12.2C91.62,160.21,87.22,155.4,80.39,155.4z M80.39,177.02c-4.9,0-7.83-3.5-7.83-9.37
		c0-5.9,2.93-9.41,7.83-9.41c4.93,0,7.88,3.52,7.88,9.41C88.27,173.51,85.33,177.02,80.39,177.02z"/>
	<path id="XMLID_6_" fill="#0E4D92" d="M108.7,155.58c-3.23,0-6.42,1.13-9.5,3.35v-0.24c0-1.77-0.12-2.84-1.74-2.84h-1.57v24h3.31
		v-17.72c3.22-2.42,6.06-3.59,8.67-3.59c2.85,0,4.01,1.15,4.01,3.97v17.33h3.31v-17.6C115.19,157.89,112.95,155.58,108.7,155.58z"/>
	<path id="XMLID_7_" fill="#0E4D92" d="M124.95,173.89v-15.44h6.1v-2.78h-6.1v-6.37h-3.31v6.37h-3.03v2.78h3.03v15.7
		c0,3.78,2,5.7,5.96,5.7c1.41,0,2.76-0.14,3.48-0.27l0.45-0.09v-2.56h-3.19C125.77,176.93,124.95,176.19,124.95,173.89z"/>
	<path id="XMLID_8_" fill="#0E4D92" d="M138.22,149.34c-1.11,0-2.05,0.94-2.05,2.05c0,1.15,0.9,2.05,2.05,2.05
		c1.15,0,2.05-0.9,2.05-2.05C140.27,150.28,139.34,149.34,138.22,149.34z"/>
	<path id="XMLID_9_" fill="#0E4D92" d="M137.78,155.85h-1.26v24h3.31v-21.07C139.83,156.69,139.65,155.85,137.78,155.85z"/>
	<path id="XMLID_10_" fill="#0E4D92" d="M158.25,155.58c-3.23,0-6.42,1.13-9.5,3.35v-0.24c0-1.77-0.12-2.84-1.74-2.84h-1.57v24h3.31
		v-17.72c3.22-2.42,6.06-3.59,8.67-3.59c2.85,0,4.01,1.15,4.01,3.97v17.33h3.31v-17.6C164.74,157.89,162.5,155.58,158.25,155.58z"/>
	<path id="XMLID_11_" fill="#0E4D92" d="M206.04,155.58c-3.23,0-6.42,1.13-9.5,3.35v-0.24c0-1.77-0.12-2.84-1.74-2.84h-1.57v24h3.31
		v-17.72c3.22-2.42,6.06-3.59,8.67-3.59c2.85,0,4.01,1.15,4.01,3.97v17.33h3.31v-17.6C212.52,157.89,210.28,155.58,206.04,155.58z"
		/>
	<path id="XMLID_12_" fill="#0E4D92" d="M222.11,173.89v-15.44h6.11v-2.78h-6.11v-6.37h-3.31v6.37h-3.03v2.78h3.03v15.7
		c0,3.78,2.01,5.7,5.96,5.7c1.41,0,2.77-0.14,3.48-0.27l0.45-0.09v-2.56h-3.19C222.94,176.93,222.11,176.19,222.11,173.89z"/>
	<path id="XMLID_13_" fill="#0E4D92" d="M256.31,147.98h-1.35v31.86h3.31v-29.19C258.27,148.75,258.1,147.98,256.31,147.98z"/>
	<path id="XMLID_16_" fill="#0E4D92" d="M247.7,157.37c-0.73-0.72-1.69-1.25-2.81-1.57c-1.08-0.31-2.33-0.44-3.67-0.44
		c-4.58,0.03-7.15,1.35-8.82,2.3c1.24,2.62,2.55,1.98,4.24,1.25c1.3-0.56,2.8-0.79,4.37-0.79c0.72,0,1.52,0.17,2.3,0.33
		c0.45,0.12,0.86,0.29,1.21,0.49c0.55,0.35,0.94,0.77,1.24,1.32c0.29,0.56,0.45,1.29,0.45,2.24v3.42c-1.73-0.38-3.48-0.56-5.46-0.56
		c-1.39,0-2.66,0.13-3.85,0.41c-0.86,0.21-1.64,0.5-2.4,0.89c-1.07,0.59-1.94,1.38-2.56,2.37c-0.62,1.02-0.93,2.21-0.93,3.61
		c0,1.13,0.2,2.19,0.58,3.09c0.59,1.34,1.61,2.4,2.87,3.08c1.28,0.69,2.79,1.04,4.49,1.04h0.01c1.95,0,3.51-0.36,4.83-0.98
		c0.91-0.45,1.7-0.98,2.42-1.63c0.02,0.31,0.04,0.57,0.08,0.81c0.03,0.26,0.1,0.5,0.22,0.71c0.08,0.16,0.18,0.31,0.32,0.44
		c0.21,0.17,0.45,0.29,0.7,0.34c0.25,0.07,0.54,0.09,0.84,0.09h1.16v-17.26c0-1.24-0.2-2.3-0.6-3.23
		C248.63,158.44,248.22,157.85,247.7,157.37z M246.22,173.64c-0.84,0.97-1.73,1.8-2.77,2.37c-1.1,0.61-2.42,0.97-4.19,0.97
		c-0.72,0-1.39-0.08-2-0.26c-0.44-0.12-0.83-0.31-1.19-0.54c-0.51-0.33-0.93-0.79-1.23-1.39c-0.3-0.62-0.48-1.38-0.48-2.34
		c0-0.82,0.17-1.46,0.48-1.99c0.24-0.41,0.53-0.75,0.91-1.08c0.55-0.45,1.28-0.78,2.17-1.01c0.86-0.22,1.86-0.33,2.98-0.33
		c1.97,0,3.71,0.26,5.32,0.61L246.22,173.64L246.22,173.64z"/>
	<path id="XMLID_17_" fill="#0E4D92" d="M55.95,150.63c0.74,0,1.4,0.04,2.02,0.12c1.33,0.17,2.38,0.51,3.24,0.94
		c0.03,0.02,0.06,0.03,0.09,0.05c0.11,0.06,0.21,0.11,0.32,0.17c0.16,0.09,0.31,0.18,0.45,0.28l0.03,0.02
		c0.08,0.06,0.17,0.11,0.24,0.17c0.09,0.07,0.18,0.14,0.27,0.21c0.24,0.2,0.48,0.4,0.7,0.59c0.24,0.2,0.47,0.38,0.71,0.52
		c0.84,0.52,1.7,0.52,3-0.95c-0.41-0.59-0.84-1.1-1.29-1.55c-2.17-2.21-4.55-2.83-5.51-3.12l-0.02-0.01v0
		c-0.68-0.16-1.42-0.28-2.23-0.35c-0.66-0.06-1.37-0.09-2.15-0.09c-7.01,0-14.09,4.95-14.09,16.02c0,0.03,0,0.06,0,0.09
		c0,0.03,0,0.06,0,0.09c0,11.07,7.07,16.02,14.09,16.02c0.78,0,1.49-0.03,2.15-0.09c0.82-0.07,1.56-0.19,2.23-0.35l0.02,0
		c0.97-0.29,3.34-0.91,5.51-3.12c0.44-0.45,0.88-0.96,1.29-1.56c-1.31-1.47-2.16-1.47-3-0.95c-0.23,0.14-0.47,0.32-0.71,0.52
		c-0.22,0.19-0.46,0.39-0.7,0.59c-0.09,0.07-0.18,0.14-0.27,0.21c-0.08,0.06-0.16,0.11-0.24,0.17l-0.03,0.02
		c-0.14,0.09-0.29,0.18-0.45,0.27c-0.11,0.06-0.21,0.12-0.32,0.17c-0.03,0.02-0.06,0.03-0.09,0.05c-0.87,0.43-1.92,0.77-3.24,0.94
		c-0.61,0.08-1.28,0.12-2.02,0.12c-6.59,0-10.69-4.95-10.69-12.93c0-0.06,0.01-0.12,0.01-0.17c0-0.06-0.01-0.12-0.01-0.18
		C45.26,155.59,49.35,150.63,55.95,150.63z"/>
	<path id="XMLID_20_" fill="#0E4D92" d="M186.96,158.86c-0.88-1.18-2.01-2.05-3.34-2.65c-1.33-0.54-2.85-0.81-4.46-0.81
		c-1.54,0-2.98,0.29-4.29,0.86c-1.93,0.86-3.55,2.33-4.67,4.29c-1.11,1.95-1.72,4.37-1.72,7.14c0,1.8,0.24,3.47,0.72,4.96
		c0.73,2.22,2.01,4.01,3.8,5.25c1.77,1.22,4.05,1.89,6.72,1.89h0.01c2.14,0,3.87-0.35,5.28-0.85c2.27-0.85,3.43-1.9,3.99-2.51
		c-1.55-2.25-2.42-1.35-4.2-0.52c-1.04,0.52-3.05,0.95-4.85,0.95c-1.38,0-2.57-0.2-3.56-0.59c-0.76-0.28-1.41-0.67-1.97-1.17
		c-0.83-0.74-1.49-1.7-1.92-2.94c-0.39-1.1-0.61-2.4-0.66-3.93h17.23v-0.54c0-0.01,0-0.07,0-0.15c0-0.2,0.03-0.57,0.03-0.94
		c0-1.9-0.23-3.55-0.71-4.97C188.03,160.59,187.55,159.67,186.96,158.86z M171.92,165.46c0.15-1.1,0.41-2.05,0.75-2.91
		c0.62-1.48,1.5-2.57,2.59-3.28c1.11-0.74,2.4-1.09,3.91-1.09c0.99,0,1.92,0.14,2.7,0.41c0.58,0.22,1.11,0.51,1.58,0.91
		c0.7,0.59,1.25,1.37,1.66,2.45c0.34,0.95,0.58,2.09,0.66,3.51L171.92,165.46L171.92,165.46z"/>
	<path id="XMLID_23_" fill="#0E4D92" d="M133.39,100.16h-6.09l-9.75,31.86h4.97l2.09-6.86h11.58l2.1,6.86h8.63l-9.67-28.62
		C136.38,100.78,135.89,100.16,133.39,100.16z M126.01,120.47l4.36-14.54l4.41,14.54H126.01z"/>
	<path id="XMLID_26_" fill="#0E4D92" d="M88.99,112.65l1.56-2.31c3.29-4.88,1.03-10.19-5.48-10.19H71.18v31.87h13.39
		C96.35,132.03,99.88,118.31,88.99,112.65z M80.95,127.77h-2.27v-23.46h4.09c1.97,0,3.67,1.63,3.67,3.59c0,0.69-0.13,1.34-0.8,2.31
		l-2.65,3.98c2.78,0.67,4.63,2.78,4.63,6.73C87.62,125.73,84.75,127.77,80.95,127.77z"/>
	<path id="XMLID_29_" fill="#0E4D92" d="M62.02,112.65l1.55-2.31c3.3-4.88,1.04-10.19-5.48-10.19h-0.48h-13.4v31.87h13.4
		C69.38,132.03,72.94,118.31,62.02,112.65z M53.98,127.77h-2.25v-23.46h4.07c1.97,0,3.69,1.63,3.69,3.59c0,0.69-0.13,1.34-0.81,2.31
		l-2.67,3.98c2.78,0.67,4.64,2.78,4.64,6.73C60.65,125.73,57.78,127.77,53.98,127.77z"/>
	<path id="XMLID_30_" fill="#0E4D92" d="M116.24,100.16l-7.19,24.2L103,104.31c-1.13-3.59-1.71-4.15-3.89-4.15h-5.62l10.42,31.86
		h7.66l9.71-31.86H116.24z"/>
</g>
</svg>
