<svg width="129" height="57" viewBox="0 0 129 57" fill="none" xmlns="http://www.w3.org/2000/svg">
<path d="M30.8969 29.9618V36.3149H27.0767V19.566H35.8471C37.2102 19.566 38.3133 19.6413 39.1562 19.792C39.9992 19.9426 40.887 20.3193 41.8197 20.922C42.7523 21.5079 43.2186 22.6128 43.2186 24.2366C43.2186 26.7644 42.0797 28.3966 39.8019 29.1332C40.9677 29.5015 41.8017 30.0288 42.3039 30.7152C42.8061 31.3848 43.0572 32.406 43.0572 33.7787C43.0572 34.465 43.0752 34.9254 43.111 35.1598C43.1648 35.3941 43.2904 35.7792 43.4877 36.3149H39.2101C39.1024 35.9801 39.0307 35.7373 38.9948 35.5867C38.9769 35.436 38.8962 34.7413 38.7527 33.5025C38.6271 32.2637 38.2146 31.3681 37.5151 30.8156C36.8336 30.2464 35.6498 29.9618 33.9639 29.9618H30.8969ZM30.8969 26.9737H36.2507C37.2192 26.9737 37.9187 26.7979 38.3491 26.4463C38.7796 26.0948 38.9948 25.5089 38.9948 24.6886C38.9948 23.9185 38.7796 23.3745 38.3491 23.0564C37.9366 22.7216 37.2371 22.5542 36.2507 22.5542H30.8969V26.9737Z" fill="white"/>
<path d="M47.077 36.3149V19.566H50.8973V36.3149H47.077Z" fill="white"/>
<path d="M63.2161 19.4404C66.2472 19.4404 68.4801 20.1603 69.915 21.6C71.3498 23.0396 72.0672 25.2745 72.0672 28.3045C72.0672 30.9495 71.3319 32.9668 69.8612 34.3562C68.3905 35.729 66.2472 36.4153 63.4313 36.4153C60.4719 36.4153 58.221 35.7038 56.6786 34.2809C55.1361 32.858 54.3649 30.7738 54.3649 28.0283C54.3649 25.1322 55.0913 22.9811 56.544 21.5748C58.0148 20.1519 60.2388 19.4404 63.2161 19.4404ZM63.2968 22.2779C61.6288 22.2779 60.4181 22.7216 59.6648 23.6088C58.9295 24.4793 58.5618 25.9106 58.5618 27.9028C58.5618 29.8781 58.9384 31.3262 59.6917 32.2469C60.445 33.1509 61.6467 33.6029 63.2968 33.6029C64.8572 33.6029 66.005 33.1425 66.7404 32.2218C67.4937 31.2844 67.8703 29.853 67.8703 27.9279C67.8703 25.986 67.4937 24.563 66.7404 23.659C66.005 22.7383 64.8572 22.2779 63.2968 22.2779Z" fill="white"/>
<path d="M82.1083 26.371H90.9326V36.3149H82.9154C81.4985 36.3149 80.3955 36.2228 79.6063 36.0387C78.8171 35.8545 77.7769 35.3021 76.4855 34.3813C75.2121 33.4439 74.5754 31.3011 74.5754 27.953C74.5754 26.3961 74.8175 25.015 75.3018 23.8097C75.786 22.5876 76.5752 21.5748 77.6693 20.7713C78.7633 19.9678 80.5659 19.566 83.0768 19.566H90.9326V22.5542H83.5342C81.8124 22.5542 80.5838 22.9559 79.8484 23.7595C79.131 24.5463 78.7723 25.8688 78.7723 27.727C78.7723 28.7816 78.8799 29.7107 79.0951 30.5143C79.3104 31.3011 79.696 31.9707 80.252 32.5231C80.8259 33.0588 81.9648 33.3267 83.6687 33.3267H87.1123V29.3592H82.1083V26.371Z" fill="white"/>
<path d="M98.5719 19.566V29.5852C98.5719 30.4222 98.6436 31.0667 98.7871 31.5187C98.9306 31.9707 99.1817 32.3557 99.5404 32.6738C99.9171 32.9751 100.374 33.2095 100.912 33.3769C101.451 33.5443 102.016 33.628 102.607 33.628C104.526 33.628 105.665 33.243 106.024 32.4729C106.401 31.6861 106.589 30.7235 106.589 29.5852V19.566H110.409V29.4345C110.409 32.0126 109.907 33.695 108.903 34.4818C107.898 35.2519 106.921 35.7708 105.97 36.0387C105.02 36.3065 103.89 36.4404 102.58 36.4404C99.7467 36.4404 97.8455 35.9884 96.877 35.0844C95.9264 34.1805 95.3345 33.3769 95.1014 32.6738C94.8682 31.9707 94.7516 30.9746 94.7516 29.6856V19.566H98.5719Z" fill="white"/>
<path d="M128.077 19.566V22.5542H123.1C121.808 22.5542 120.858 22.6379 120.248 22.8053C119.656 22.9727 119.181 23.274 118.822 23.7093C118.481 24.1445 118.257 24.5212 118.149 24.8392C118.042 25.1573 117.988 25.7098 117.988 26.4966H128.077V29.4847H117.988C118.131 30.9244 118.58 31.9289 119.333 32.498C120.104 33.0505 121.414 33.3267 123.261 33.3267H128.077V36.3149H123.1C121.163 36.3149 119.674 36.181 118.634 35.9131C117.611 35.6453 116.526 34.9505 115.378 33.8289C114.23 32.7073 113.656 30.7487 113.656 27.953C113.656 24.856 114.32 22.7885 115.647 21.7506C116.993 20.696 118.015 20.0682 118.714 19.8673C119.432 19.6664 120.4 19.566 121.62 19.566H128.077Z" fill="white"/>
<path d="M106.436 41.127V41.925H105.016C104.647 41.925 104.376 41.9473 104.202 41.992C104.033 42.0367 103.898 42.1172 103.795 42.2334C103.698 42.3497 103.634 42.4502 103.603 42.5352C103.573 42.6201 103.557 42.7677 103.557 42.9778H106.436V43.7758H103.557C103.598 44.1602 103.726 44.4285 103.941 44.5805C104.161 44.728 104.535 44.8018 105.062 44.8018H106.436V45.5998H105.016C104.463 45.5998 104.038 45.564 103.742 45.4925C103.45 45.421 103.14 45.2354 102.813 44.9359C102.486 44.6364 102.322 44.1133 102.322 43.3667C102.322 42.5397 102.511 41.9875 102.89 41.7104C103.273 41.4287 103.565 41.2611 103.765 41.2074C103.969 41.1538 104.246 41.127 104.594 41.127H106.436Z" fill="white"/>
<path d="M108.479 44.728V45.5998H107.551V44.728H108.479Z" fill="white"/>
<path d="M109.781 45.5998V41.127H110.871V45.5998H109.781Z" fill="white"/>
<path d="M113.099 44.728V45.5998H112.171V44.728H113.099Z" fill="white"/>
<path d="M115.491 43.9032V45.5998H114.401V41.127H116.903C117.292 41.127 117.607 41.1471 117.847 41.1873C118.088 41.2275 118.341 41.3281 118.607 41.4891C118.873 41.6455 119.006 41.9406 119.006 42.3742C119.006 43.0493 118.681 43.4852 118.032 43.6819C118.364 43.7802 118.602 43.9211 118.745 44.1044C118.889 44.2832 118.96 44.5559 118.96 44.9225C118.96 45.1058 118.965 45.2287 118.976 45.2913C118.991 45.3539 119.027 45.4567 119.083 45.5998H117.863C117.832 45.5104 117.811 45.4455 117.801 45.4053C117.796 45.3651 117.773 45.1795 117.732 44.8487C117.696 44.5179 117.579 44.2787 117.379 44.1312C117.185 43.9792 116.847 43.9032 116.366 43.9032H115.491ZM115.491 43.1052H117.018C117.295 43.1052 117.494 43.0582 117.617 42.9644C117.74 42.8705 117.801 42.714 117.801 42.495C117.801 42.2893 117.74 42.144 117.617 42.0591C117.499 41.9697 117.3 41.925 117.018 41.925H115.491V43.1052Z" fill="white"/>
<path d="M121.07 44.728V45.5998H120.141V44.728H121.07Z" fill="white"/>
<path d="M122.318 41.127H123.408V43.635C123.408 43.8451 123.41 43.9792 123.415 44.0373C123.42 44.091 123.438 44.2117 123.469 44.3994C123.505 44.5872 123.635 44.699 123.86 44.7347C124.086 44.7705 124.244 44.7906 124.336 44.7951C124.433 44.7995 124.582 44.8018 124.781 44.8018H125.825V45.5998H124.666L124.083 45.5931C123.704 45.5931 123.392 45.535 123.147 45.4187C122.901 45.298 122.719 45.1482 122.602 44.9694C122.484 44.7861 122.407 44.5984 122.371 44.4061C122.336 44.2094 122.318 43.9524 122.318 43.635V41.127Z" fill="white"/>
<path d="M127.646 44.728V45.5998H126.717V44.728H127.646Z" fill="white"/>
<path fill-rule="evenodd" clip-rule="evenodd" d="M34.5 6C43.431 6 51.3676 9.40589 56.3911 14.6827L51.4524 16.1643C47.3279 12.3866 41.2623 10 34.5 10C22.0736 10 12 18.0589 12 28C12 29.7547 12.3139 31.4508 12.8991 33.0542C11.2129 33.2218 9.63865 33.7701 8.26371 34.6121C7.44268 32.5251 7 30.3039 7 28C7 15.8497 19.3122 6 34.5 6ZM24.0971 48.3714C27.3062 49.4213 30.8186 50 34.5 50C43.431 50 51.3676 46.5941 56.3911 41.3173L51.4524 39.8357C47.3279 43.6134 41.2623 46 34.5 46C31.1035 46 27.8827 45.3979 24.9954 44.3199C24.9544 45.7563 24.638 47.1238 24.0971 48.3714Z" fill="#F6C905"/>
<path fill-rule="evenodd" clip-rule="evenodd" d="M63.3208 43.3962C57.1501 50.9895 46.546 56 34.5 56C29.2463 56 24.2668 55.0469 19.8098 53.3422C21.1281 52.5206 22.2598 51.4278 23.1269 50.1418C26.6258 51.3387 30.4682 52 34.5 52C44.3795 52 53.1219 48.0292 58.4587 41.9376L63.3208 43.3962ZM3.58687 40.4456C4.20254 38.6413 5.27396 37.0481 6.66388 35.8033C5.63311 33.3568 5.07353 30.7317 5.07353 28C5.07353 14.7452 18.2482 4 34.5 4C44.3795 4 53.1219 7.97082 58.4587 14.0624L63.3208 12.6038C57.1501 5.01054 46.546 0 34.5 0C15.4462 0 0 12.536 0 28C0 32.4706 1.29097 36.6966 3.58687 40.4456Z" fill="#B0CA11"/>
<path d="M14 34C8.486 34 4 38.486 4 44C4 49.514 8.486 54 14 54C19.514 54 24 49.514 24 44C24 38.486 19.514 34 14 34ZM6 44C6 43.101 6.156 42.238 6.431 41.431L8 43L10 45V47L12 49L13 50V51.931C9.061 51.436 6 48.072 6 44ZM20.33 48.873C19.677 48.347 18.687 48 18 48V47C18 46.4696 17.7893 45.9609 17.4142 45.5858C17.0391 45.2107 16.5304 45 16 45H12V42C12.5304 42 13.0391 41.7893 13.4142 41.4142C13.7893 41.0391 14 40.5304 14 40V39H15C15.5304 39 16.0391 38.7893 16.4142 38.4142C16.7893 38.0391 17 37.5304 17 37V36.589C19.928 37.778 22 40.65 22 44C21.9996 45.7647 21.4121 47.479 20.33 48.873Z" fill="white"/>
</svg>
