<svg width="72" height="56" viewBox="0 0 72 56" fill="none" xmlns="http://www.w3.org/2000/svg">
<path d="M14 34C8.486 34 4 38.486 4 44C4 49.514 8.486 54 14 54C19.514 54 24 49.514 24 44C24 38.486 19.514 34 14 34ZM6 44C6 43.101 6.156 42.238 6.431 41.431L8 43L10 45V47L12 49L13 50V51.931C9.061 51.436 6 48.072 6 44ZM20.33 48.873C19.677 48.347 18.687 48 18 48V47C18 46.4696 17.7893 45.9609 17.4142 45.5858C17.0391 45.2107 16.5304 45 16 45H12V42C12.5304 42 13.0391 41.7893 13.4142 41.4142C13.7893 41.0391 14 40.5304 14 40V39H15C15.5304 39 16.0391 38.7893 16.4142 38.4142C16.7893 38.0391 17 37.5304 17 37V36.589C19.928 37.778 22 40.65 22 44C21.9996 45.7647 21.4121 47.479 20.33 48.873Z" fill="#074382"/>
<path d="M35.6131 29.5862V44H27V6H46.7738C49.847 6 52.3339 6.17091 54.2344 6.51274C56.135 6.85457 58.1366 7.70915 60.2393 9.07646C62.3421 10.4058 63.3934 12.9125 63.3934 16.5967C63.3934 22.3318 60.8257 26.035 55.6902 27.7061C58.3186 28.5417 60.1989 29.7381 61.3311 31.2954C62.4634 32.8146 63.0295 35.1314 63.0295 38.2459C63.0295 39.8031 63.0699 40.8476 63.1508 41.3793C63.2721 41.911 63.5552 42.7846 64 44H54.3557C54.1131 43.2404 53.9514 42.6897 53.8705 42.3478C53.8301 42.006 53.6481 40.4298 53.3246 37.6192C53.0415 34.8086 52.1115 32.7766 50.5344 31.5232C48.9978 30.2319 46.329 29.5862 42.5279 29.5862H35.6131ZM35.6131 22.8066H47.6836C49.8672 22.8066 51.4443 22.4078 52.4148 21.6102C53.3852 20.8126 53.8705 19.4833 53.8705 17.6222C53.8705 15.8751 53.3852 14.6407 52.4148 13.919C51.4847 13.1594 49.9076 12.7796 47.6836 12.7796H35.6131V22.8066Z" fill="#074382"/>
<path fill-rule="evenodd" clip-rule="evenodd" d="M55.2715 45H61.9157C55.611 51.687 45.6761 56 34.5 56C29.2463 56 24.2668 55.0469 19.8098 53.3422C21.1281 52.5206 22.2598 51.4278 23.1269 50.1418C26.6258 51.3387 30.4682 52 34.5 52C42.6075 52 49.9492 49.3258 55.2715 45ZM6.66388 35.8033C5.27396 37.0481 4.20254 38.6413 3.58687 40.4456C1.29097 36.6966 0 32.4706 0 28C0 12.536 15.4462 0 34.5 0C42.3896 0 49.6606 2.14932 55.4726 5.76586C55.117 5.6709 54.7632 5.59164 54.4111 5.52832C52.4285 5.17175 49.8755 5 46.7734 5H42.9328C40.2614 4.34943 37.4307 4 34.5 4C31.5693 4 28.7386 4.34943 26.0672 5L26 5.01644C13.8923 7.99093 5.07353 17.1555 5.07353 28C5.07353 30.7317 5.63311 33.3568 6.66388 35.8033ZM63.3857 17.1279L63.3934 16.5967C63.3934 17.2267 63.3624 17.8321 63.3004 18.4131C63.3447 17.9973 63.3731 17.5689 63.3857 17.1279Z" fill="#B0CA11"/>
<path fill-rule="evenodd" clip-rule="evenodd" d="M24.9954 44.3201C25.326 44.4435 25.6609 44.5607 26 44.6715C26.3576 44.7883 26.7198 44.8979 27.0863 45.0002C29.4077 45.6481 31.9024 46.0002 34.5 46.0002C41.2623 46.0002 47.3279 43.6136 51.4524 39.8359L52.6132 40.1842C52.7622 41.4775 52.8501 42.2382 52.877 42.465L52.8838 42.5227L52.8975 42.5783C52.9772 42.9153 53.1204 43.4081 53.3198 44.0415C48.4003 47.7368 41.7806 50.0002 34.5 50.0002C30.8186 50.0002 27.3062 49.4215 24.0971 48.3716C24.638 47.124 24.9544 45.7565 24.9954 44.3201ZM62.5656 21.5816C63.1174 20.1383 63.3934 18.4768 63.3934 16.5969L63.3857 17.1281C63.3382 18.7913 63.0648 20.2758 62.5656 21.5816ZM26 7.07123V11.3289C17.7873 14.0116 12 20.4652 12 28.0002C12 29.7549 12.3139 31.451 12.8991 33.0544C11.2129 33.222 9.63865 33.7703 8.26371 34.6123C7.44268 32.5253 7 30.3041 7 28.0002C7 18.2231 14.9723 9.93565 26 7.07123Z" fill="#F6C905"/>
</svg>
